<?xml version="1.0" encoding="utf-8"?>
<!-- Generator: Adobe Illustrator 23.0.1, SVG Export Plug-In . SVG Version: 6.00 Build 0)  -->
<svg version="1.1" id="Layer_1" xmlns="http://www.w3.org/2000/svg" xmlns:xlink="http://www.w3.org/1999/xlink" x="0px" y="0px"
	 viewBox="0 0 24 24" style="enable-background:new 0 0 24 24;" xml:space="preserve">
<style type="text/css">
	.st0{fill:none;}
	.st1{fill:#858585;}
</style>
<path class="st0" d="M0,0h24v24H0V0z"/>
<path class="st1" d="M20,15.5c-1.3,0-2.5-0.2-3.6-0.6c-0.1,0-0.2-0.1-0.3-0.1c-0.3,0-0.5,0.1-0.7,0.3l-2.2,2.2
	c-2.8-1.4-5.1-3.8-6.6-6.6l2.2-2.2c0.3-0.3,0.4-0.7,0.3-1C8.7,6.4,8.5,5.3,8.5,4c0-0.5-0.4-1-1-1H4C3.5,3,3,3.5,3,4
	c0,9.4,7.6,17,17,17c0.5,0,1-0.5,1-1v-3.5C21,15.9,20.5,15.5,20,15.5z M5,5h1.5C6.6,5.9,6.8,6.8,7,7.6L5.8,8.8C5.4,7.6,5.1,6.3,5,5z
	 M19,19c-1.3-0.1-2.6-0.4-3.8-0.8l1.2-1.2c0.9,0.2,1.7,0.4,2.6,0.5V19z M12,3v10l3-3h6V3H12z M19,8h-5V5h5V8z"/>
</svg>
